<svg style="display: none;" aria-hidden="true" xmlns="http://www.w3.org/2000/svg" xmlns:xlink="http://www.w3.org/1999/xlink"><symbol viewBox="0 0 12 14" fill="none" id="svg-book"><path d="M10.7211 1.03748V5.40882C10.7212 5.43758 10.7142 5.46591 10.7005 5.49125C10.6869 5.51659 10.6672 5.53813 10.6432 5.55393C10.6191 5.56973 10.5915 5.57928 10.5629 5.58172C10.5342 5.58416 10.5054 5.57941 10.479 5.5679L9.46921 5.10449C9.43707 5.09736 9.40763 5.08121 9.38435 5.05793C9.36107 5.03465 9.34492 5.00521 9.33779 4.97307L8.64613 0.892234C8.64196 0.866729 8.64355 0.840613 8.65081 0.815807C8.65806 0.791001 8.67078 0.768136 8.68803 0.748893C8.70528 0.729651 8.72663 0.71452 8.7505 0.704614C8.77437 0.694707 8.80015 0.690278 8.82596 0.69165H10.3753C10.467 0.69165 10.555 0.728086 10.6198 0.792943C10.6847 0.857799 10.7211 0.945763 10.7211 1.03748Z" fill="#4640DE"/><path d="M8.56981 4.3852C8.57516 4.41619 8.57195 4.44805 8.56053 4.47735 8.54912 4.50666 8.52993 4.53229 8.50503 4.5515 8.48013 4.57071 8.45046 4.58277 8.41922 4.58637 8.38798 4.58997 8.35635 4.58499 8.32773 4.57195L3.61056 2.3932C3.15457 2.18494 2.65936 2.07647 2.15806 2.07503H.691726.442725L.345892 1.6047C.329724 1.51485.349736 1.42226.401564 1.34711.453392 1.27196.532832 1.22035.622559 1.20353L7.44239.0000304691H7.50464C7.58572-.00105625 7.66449.0269579 7.72668.0789891 7.78886.13102 7.83033.20362 7.84356.283614L8.56981 4.3852zM10.956 6.54322L3.32 3.02264C2.95533 2.85552 2.55914 2.76826 2.158 2.76672H.691667C.508225 2.76672.332297 2.8396.202585 2.96931.0728718 3.09902 0 3.27495 0 3.45839V13.1417C0 13.3252.0728718 13.5011.202585 13.6308.332297 13.7605.508225 13.8334.691667 13.8334H11.0667C11.2501 13.8334 11.426 13.7605 11.5558 13.6308 11.6855 13.5011 11.7583 13.3252 11.7583 13.1417V7.80206C11.759 7.53747 11.6838 7.27825 11.5415 7.05513 11.3993 6.83201 11.1961 6.65435 10.956 6.54322zM8.41067 8.75656L3.21625 6.39106C3.18421 6.37711 3.15714 6.35379 3.13862 6.32415 3.1201 6.29452 3.111 6.25997 3.1125 6.22506V5.84464C3.1124 5.81588 3.11948 5.78754 3.13309 5.76221 3.1467 5.73687 3.16642 5.71533 3.19045 5.69953 3.21449 5.68373 3.24209 5.67418 3.27075 5.67174 3.29941 5.6693 3.32822 5.67405 3.35458 5.68556L8.549 8.04414C8.57993 8.05764 8.60624 8.0799 8.62467 8.10816 8.64311 8.13643 8.65287 8.16948 8.65275 8.20322V8.59056C8.65404 8.6199 8.64784 8.64909 8.63472 8.67537 8.62161 8.70164 8.60201 8.72415 8.57779 8.74076 8.55357 8.75737 8.52552 8.76754 8.49628 8.7703 8.46704 8.77306 8.43758 8.76833 8.41067 8.75656z" fill="#B4B1FF"/></symbol><symbol viewBox="0 0 12 11" fill="none" id="svg-camera"><path d="M11.4 1.80603H0.6C0.44087 1.80603 0.288258 1.86924 0.175736 1.98177C0.0632141 2.09429 0 2.2469 0 2.40603V9.60603C0 9.76516 0.0632141 9.91777 0.175736 10.0303C0.288258 10.1428 0.44087 10.206 0.6 10.206H11.4C11.5591 10.206 11.7117 10.1428 11.8243 10.0303C11.9368 9.91777 12 9.76516 12 9.60603V2.40603C12 2.2469 11.9368 2.09429 11.8243 1.98177C11.7117 1.86924 11.5591 1.80603 11.4 1.80603ZM1.8 4.20603C1.68133 4.20603 1.56533 4.17084 1.46666 4.10491C1.36799 4.03898 1.29108 3.94528 1.24567 3.83564C1.20026 3.726 1.18838 3.60536 1.21153 3.48898C1.23468 3.37259 1.29182 3.26568 1.37574 3.18177C1.45965 3.09785 1.56656 3.04071 1.68295 3.01756C1.79933 2.99441 1.91997 3.00629 2.02961 3.0517C2.13925 3.09712 2.23295 3.17402 2.29888 3.27269C2.36481 3.37136 2.4 3.48736 2.4 3.60603C2.4 3.76516 2.33679 3.91777 2.22426 4.03029C2.11174 4.14282 1.95913 4.20603 1.8 4.20603ZM8.022 9.51603C7.25986 9.69494 6.46016 9.62054 5.7441 9.30409C5.02805 8.98765 4.43466 8.44641 4.05386 7.76241C3.67306 7.0784 3.52561 6.2889 3.63385 5.51356C3.74209 4.73822 4.10012 4.01929 4.65369 3.46572C5.20726 2.91215 5.92619 2.55412 6.70153 2.44588C7.47687 2.33764 8.26637 2.48509 8.95038 2.86589C9.63439 3.24669 10.1756 3.84008 10.4921 4.55613C10.8085 5.27219 10.8829 6.07189 10.704 6.83403C10.5509 7.48639 10.2187 8.08306 9.74486 8.55689C9.27103 9.03071 8.67436 9.36289 8.022 9.51603Z" fill="#B4B1FF"/><path d="M9.51591 1.206H4.88391C4.85653 1.20632 4.82959 1.19913 4.80601 1.18523 4.78242 1.17133 4.76309 1.15123 4.75011 1.12713 4.73713 1.10302 4.73099 1.07582 4.73237 1.04847 4.73374 1.02113 4.74258.994682 4.75791.972L5.21991.27C5.27426.187464 5.34816.11963 5.43504.0725276 5.52192.025425 5.61909.000511271 5.71791 0H8.67591C8.77473.000511271 8.8719.025425 8.95878.0725276 9.04566.11963 9.11956.187464 9.17391.27L9.63591.972C9.65097.994261 9.65978 1.02016 9.6614 1.04699 9.66303 1.07382 9.65742 1.10059 9.64515 1.12451 9.63289 1.14842 9.61442 1.16861 9.59168 1.18294 9.56895 1.19728 9.54278 1.20524 9.51591 1.206zM8.01625 3.11404C7.50195 2.96729 6.95777 2.9607 6.44007 3.09495 5.92237 3.2292 5.44997 3.4994 5.07179 3.87758 4.69362 4.25576 4.42341 4.72816 4.28916 5.24586 4.15492 5.76356 4.16151 6.30774 4.30825 6.82204 4.44311 7.3191 4.70568 7.77223 5.06987 8.13642 5.43405 8.5006 5.88718 8.76317 6.38425 8.89804 6.89855 9.04478 7.44272 9.05137 7.96043 8.91712 8.47813 8.78287 8.95053 8.51267 9.3287 8.13449 9.70688 7.75631 9.97709 7.28391 10.1113 6.76621 10.2456 6.24851 10.239 5.70433 10.0922 5.19004 9.95738 4.69297 9.69482 4.23984 9.33063 3.87565 8.96645 3.51147 8.51332 3.2489 8.01625 3.11404zM8.26225 7.06804C8.01647 7.31525 7.69254 7.46954 7.34571 7.5046 6.99887 7.53966 6.65062 7.45331 6.36034 7.26029 6.07006 7.06726 5.85574 6.7795 5.75392 6.4461 5.6521 6.1127 5.6691 5.75431 5.80201 5.43204 5.93492 5.10977 6.17552 4.84359 6.48276 4.6789 6.79001 4.51421 7.14487 4.46121 7.48683 4.52893 7.82879 4.59666 8.13666 4.78092 8.35794 5.05028 8.57922 5.31965 8.7002 5.65744 8.70025 6.00604 8.7006 6.20315 8.6621 6.3984 8.58694 6.58063 8.51179 6.76285 8.40146 6.92848 8.26225 7.06804z" fill="#4640DE"/></symbol><symbol viewBox="0 0 13 12" fill="none" id="svg-computer"><path d="M13 0.65V6.3375C13 6.3806 12.9829 6.42193 12.9524 6.4524C12.9219 6.48288 12.8806 6.5 12.8375 6.5H0.1625C0.119402 6.5 0.0780698 6.48288 0.0475952 6.4524C0.0171205 6.42193 0 6.3806 0 6.3375V0.65C0 0.477609 0.0684819 0.312279 0.190381 0.190381C0.312279 0.0684819 0.477609 0 0.65 0H12.35C12.5224 0 12.6877 0.0684819 12.8096 0.190381C12.9315 0.312279 13 0.477609 13 0.65Z" fill="#B4B1FF"/><path d="M0 7.21145V8.34895C0 8.52134 0.0684819 8.68667 0.190381 8.80857C0.312279 8.93047 0.477609 8.99895 0.65 8.99895H4.68C4.70371 8.99864 4.72721 9.00353 4.74883 9.01327C4.77046 9.02301 4.78969 9.03737 4.80517 9.05533C4.82066 9.0733 4.83203 9.09443 4.83847 9.11726C4.84492 9.14008 4.8463 9.16404 4.8425 9.18745L4.6215 10.4875C4.58993 10.6015 4.52784 10.7047 4.44194 10.786C4.35603 10.8673 4.24956 10.9237 4.134 10.949C4.06249 10.9669 3.99943 11.0091 3.95557 11.0684C3.91171 11.1277 3.88977 11.2003 3.8935 11.274C3.90013 11.3601 3.93953 11.4405 4.00361 11.4986C4.06769 11.5566 4.15157 11.5879 4.238 11.586H8.7425C8.82893 11.5879 8.91281 11.5566 8.97689 11.4986C9.04097 11.4405 9.08037 11.3601 9.087 11.274C9.09073 11.2003 9.06879 11.1277 9.02493 11.0684C8.98107 11.0091 8.91801 10.9669 8.8465 10.949C8.73094 10.9237 8.62447 10.8673 8.53856 10.786C8.45266 10.7047 8.39057 10.6015 8.359 10.4875L8.138 9.18745C8.13369 9.1623 8.13535 9.13649 8.14287 9.11211C8.15038 9.08773 8.16354 9.06546 8.18126 9.0471C8.19898 9.02875 8.22077 9.01483 8.24488 9.00646C8.26898 8.99809 8.29472 8.99552 8.32 8.99895H12.35C12.5224 8.99895 12.6877 8.93047 12.8096 8.80857C12.9315 8.68667 13 8.52134 13 8.34895V7.21145C13 7.16835 12.9829 7.12702 12.9524 7.09655C12.9219 7.06607 12.8806 7.04895 12.8375 7.04895H0.1625C0.119402 7.04895 0.0780698 7.06607 0.0475952 7.09655C0.0171205 7.12702 0 7.16835 0 7.21145Z" fill="#4640DE"/></symbol><symbol viewBox="0 0 13 14" fill="none" id="svg-cub"><path d="M6.5625 8.3125H5.6875V12.6875H6.5625V8.3125zM9.625 1.96875L9.40625 6.34375C9.40625 6.34375 12.25 6.125 12.25 4.15625V2.1875C12.25 2.0667 12.1521 1.96875 12.0312 1.96875H9.625zM11.375 4.15625C11.375 4.33106 11.3571 4.87616 10.5 5.25V2.84375H11.375V4.15625zM.21875 2.04163C.0979453 2.04163 0 2.13957 0 2.26038V4.22913C0 6.19788 2.84375 6.41663 2.84375 6.41663L2.625 2.04163H.21875zM.875 2.91663H1.75V5.32288C.902344 4.94903.875 4.40393.875 4.22913V2.91663z" fill="#B4B1FF"/><path d="M9.70183 1.98268L6.20183 0.670175C6.15228 0.651608 6.09773 0.651608 6.04821 0.670175L2.54821 1.98268C2.44918 2.01981 2.39093 2.12246 2.40977 2.22653C2.42861 2.3306 2.51926 2.40626 2.62502 2.40626H9.62502C9.73079 2.40626 9.82141 2.3306 9.84027 2.22653C9.85914 2.12246 9.80087 2.01981 9.70183 1.98268Z" fill="#B4B1FF"/><path d="M6.125 0C5.76313 0 5.46875.294383 5.46875.65625 5.46875 1.01812 5.76313 1.3125 6.125 1.3125 6.48687 1.3125 6.78125 1.01812 6.78125.65625 6.78125.294383 6.48687 0 6.125 0zM9.84375 1.96875H2.40625V5.20909C2.40625 7.26116 4.05125 8.95691 6.10329 8.96869 8.16372 8.98051 9.84375 7.30775 9.84375 5.25V1.96875z" fill="#B4B1FF"/><path d="M6.77089 8.74997C4.71496 8.74434 3.0625 7.04955 3.0625 4.99362V1.96875H2.40625V5.21172C2.40625 7.26261 4.05054 8.95587 6.1014 8.96869C6.64158 8.97206 7.1555 8.8594 7.62005 8.65462C7.34716 8.71776 7.06286 8.75079 6.77089 8.74997Z" fill="#4640DE"/><path d="M6.5625 11.5938H5.6875C4.8125 12.4688 2.625 13.125 2.625 13.125H9.625C9.625 13.125 7.4375 12.4688 6.5625 11.5938Z" fill="#B4B1FF"/><path d="M5.68792 11.5938C4.81292 12.4688 2.62542 13.125 2.62542 13.125H3.71917C3.71917 13.125 5.68792 12.4688 6.56292 11.5938H5.68792zM9.40625 14H2.84375C2.72295 14 2.625 13.9021 2.625 13.7812V13.125H9.625V13.7812C9.625 13.9021 9.52705 14 9.40625 14z" fill="#4640DE"/><path d="M3.5 13.7812V13.125H2.625V13.7812C2.625 13.9021 2.72295 14 2.84375 14H3.71875C3.59795 14 3.5 13.9021 3.5 13.7812Z" fill="#4640DE"/></symbol><symbol viewBox="0 0 13 15" fill="none" id="svg-digproduct"><path d="M7.16662 1.43334V8.11263C7.16625 8.14153 7.15889 8.16991 7.14518 8.19534 7.13146 8.22078 7.1118 8.24252 7.08786 8.25872 7.06392 8.27491 7.03643 8.28507 7.00771 8.28834 6.979 8.2916 6.94992 8.28787 6.92296 8.27746L6.56463 8.13413C6.53124 8.12125 6.50247 8.09867 6.48203 8.06929 6.4616 8.03991 6.45043 8.00508 6.44996 7.9693V1.79167C6.44996 1.69663 6.41221 1.60549 6.34501 1.53829 6.27781 1.47109 6.18667 1.43334 6.09163 1.43334H5.37497C5.34532 1.433 5.31605 1.44002 5.28978 1.45378 5.26351 1.46754 5.24107 1.4876 5.22447 1.51217L5.14564 1.634C5.11198 1.68269 5.067 1.72248 5.01457 1.74994 4.96214 1.7774 4.90383 1.79172 4.84464 1.79167H2.34349C2.28419 1.79235 2.22564 1.7783 2.17311 1.75078 2.12058 1.72326 2.07569 1.68314 2.04249 1.634L1.95649 1.51217C1.93861 1.48545 1.91388 1.46403 1.88488 1.45016 1.85588 1.43629 1.82368 1.43048 1.79166 1.43334H1.07499C.979958 1.43334.888815 1.47109.821615 1.53829.754415 1.60549.716662 1.69663.716662 1.79167V11.4666C.716662 11.5616.754415 11.6528.821615 11.72.888815 11.7872.979958 11.8249 1.07499 11.8249H1.86332C1.91133 11.8247 1.95891 11.834 2.00323 11.8525 2.04755 11.871 2.08771 11.8982 2.12132 11.9324L3.13181 12.9573C3.15784 12.9823 3.17568 13.0147 3.183 13.05 3.19031 13.0854 3.18676 13.1222 3.17281 13.1555 3.15886 13.1888 3.13516 13.2172 3.10483 13.2368 3.07449 13.2564 3.03893 13.2664 3.00282 13.2654H.716662C.526592 13.2654.344306 13.1899.209906 13.0555.0755052 12.9211 0 12.7388 0 12.5488V1.43334C0 1.24327.0755052 1.06098.209906.92658.344306.79218.526592.716675.716662.716675H6.44996C6.64003.716675 6.82232.79218 6.95672.92658 7.09112 1.06098 7.16662 1.24327 7.16662 1.43334zM12.1833 3.22506C12.1843 3.27238 12.1757 3.31941 12.158 3.36333 12.1404 3.40724 12.114 3.44714 12.0806 3.48061 12.0471 3.51408 12.0072 3.54044 11.9633 3.5581 11.9194 3.57576 11.8723 3.58436 11.825 3.58339 11.7319 3.58339 11.6425 3.54639 11.5767 3.48053 11.5108 3.41468 11.4738 3.32536 11.4738 3.23222 11.4748 2.90162 11.4104 2.57409 11.2843 2.26847 11.1582 1.96285 10.9729 1.68517 10.7392 1.4514 10.5054 1.21762 10.2277 1.03237 9.9221.90629 9.61648.78021 9.28895.715791 8.95835.716737 8.86332.716737 8.77217.678984 8.70497.611784 8.63777.544584 8.60002.453441 8.60002.358406 8.59904.311081 8.60764.264048 8.62531.220132 8.64297.176216 8.66933.136324 8.7028.102854 8.73627.0693832 8.77616.0430247 8.82008.0253624 8.86399.00770016 8.91103-.000901403 8.95835.000074674 9.38213-.000870203 9.80192.0819015 10.1936.243637 10.5853.405373 10.9412.642887 11.2409.942543 11.5405 1.2422 11.778 1.59809 11.9398 1.98979 12.1015 2.38149 12.1843 2.80128 12.1833 3.22506z" fill="#4640DE"/><path d="M10.7499 3.22511C10.7519 3.27271 10.744 3.32021 10.7267 3.3646C10.7094 3.40899 10.6831 3.44931 10.6494 3.483C10.6157 3.51668 10.5754 3.54301 10.531 3.5603C10.4866 3.57759 10.4391 3.58547 10.3915 3.58344C10.3003 3.58344 10.2128 3.5472 10.1483 3.48268C10.0838 3.41817 10.0475 3.33067 10.0475 3.23944C10.0509 3.18455 10.0509 3.1295 10.0475 3.07461C10.0223 2.83685 9.91585 2.61507 9.74613 2.44666C9.57641 2.27825 9.35382 2.17351 9.11587 2.15011H8.9582C8.91243 2.15107 8.86693 2.14287 8.82436 2.12601C8.78179 2.10915 8.74302 2.08397 8.71032 2.05193C8.67761 2.01989 8.65163 1.98164 8.63389 1.93943C8.61616 1.89722 8.60703 1.8519 8.60704 1.80612C8.603 1.75798 8.60914 1.70953 8.62507 1.66393C8.641 1.61833 8.66635 1.57659 8.69947 1.54143C8.7326 1.50628 8.77276 1.47849 8.81734 1.45989C8.86192 1.44128 8.90991 1.43228 8.9582 1.43345C9.43338 1.43345 9.8891 1.62221 10.2251 1.95822C10.5611 2.29422 10.7499 2.74993 10.7499 3.22511Z" fill="#4640DE"/><path d="M8.59994 10.6855V12.1188C8.59937 12.424 8.53848 12.726 8.42078 13.0075C8.24116 13.4039 7.95077 13.74 7.58458 13.9752C7.2184 14.2104 6.79202 14.3348 6.35679 14.3333C6.04848 14.3343 5.74335 14.271 5.4608 14.1477C5.17826 14.0243 4.92448 13.8434 4.71563 13.6166L3.80547 12.599L2.37214 11.1657C2.27682 11.0719 2.21157 10.9518 2.18471 10.8208C2.15786 10.6898 2.1706 10.5537 2.22133 10.43C2.27206 10.3062 2.35847 10.2004 2.46957 10.1259C2.58066 10.0514 2.7114 10.0117 2.84514 10.0118C2.93398 10.0108 3.02215 10.0274 3.10455 10.0606C3.18696 10.0938 3.26198 10.143 3.32531 10.2053L3.8413 10.7285C3.87194 10.7453 3.90681 10.7528 3.94164 10.75C3.9898 10.7481 4.03537 10.7277 4.06878 10.6929C4.10219 10.6582 4.12084 10.6119 4.1208 10.5637V7.23118C4.11752 7.08792 4.16669 6.94839 4.25908 6.83884C4.35147 6.7293 4.4807 6.65729 4.62246 6.63635H4.6583C4.80655 6.63635 4.94874 6.69525 5.05357 6.80008C5.1584 6.90491 5.21729 7.04709 5.21729 7.19535V8.14851C5.21822 8.22008 5.24057 8.28973 5.28144 8.34849C5.32231 8.40724 5.37985 8.45241 5.44663 8.47817L7.68978 9.31667C7.96358 9.42392 8.19777 9.61278 8.36058 9.85764C8.5234 10.1025 8.60696 10.3915 8.59994 10.6855Z" fill="#B4B1FF"/></symbol><symbol viewBox="0 0 13 14" fill="none" id="svg-event"><path d="M3.00084 0.862985L1.59054 8.8798C1.58268 8.91849 1.56169 8.95327 1.53112 8.97826C1.50055 9.00324 1.46229 9.01689 1.42281 9.01689C1.38333 9.01689 1.34506 9.00324 1.31449 8.97826C1.28393 8.95327 1.26293 8.91849 1.25508 8.8798L0.0090836 1.84883C-0.00556651 1.75979 -0.00247122 1.66874 0.0181915 1.5809C0.0388543 1.49307 0.0766768 1.41018 0.129484 1.33702C0.182291 1.26385 0.249042 1.20184 0.325896 1.15456C0.402751 1.10729 0.488194 1.07567 0.577312 1.06152L2.81599 0.664448C2.84209 0.661994 2.8684 0.665567 2.8929 0.674891C2.91739 0.684214 2.93942 0.699039 2.95728 0.718223C2.97514 0.737406 2.98836 0.760435 2.99591 0.785534C3.00346 0.810633 3.00515 0.837131 3.00084 0.862985V0.862985Z" fill="#4640DE"/><path d="M8.39579 0.650783L11.5313 1.20532C11.6239 1.21913 11.7127 1.25178 11.7922 1.30126C11.8717 1.35075 11.9401 1.416 11.9934 1.493C12.0466 1.57 12.0835 1.6571 12.1018 1.74892C12.1201 1.84075 12.1193 1.93534 12.0995 2.02685L10.1621 12.8437C10.1343 12.9964 10.0555 13.1351 9.93859 13.2371C9.82167 13.3391 9.67357 13.3983 9.51856 13.4051H9.40217L5.58204 12.7205L2.40544 12.1591C2.31406 12.1437 2.22677 12.1098 2.14887 12.0596C2.07096 12.0094 2.00406 11.9439 1.95221 11.8671C1.90036 11.7903 1.86465 11.7038 1.84723 11.6127C1.82982 11.5217 1.83107 11.4281 1.8509 11.3376L3.74043 0.56863C3.73722 0.548217 3.73722 0.527428 3.74043 0.507015C3.78055 0.357658 3.87005 0.226285 3.99437 0.134292C4.11868 0.0422996 4.27048 -0.00489276 4.42504 0.000401512H4.54827L5.55465 0.178401L8.39579 0.650783Z" fill="#B4B1FF"/></symbol><symbol viewBox="0 0 12 10" fill="none" id="svg-faith"><path d="M1.83599.416138C1.83567.416138 1.8353.416138 1.83498.416138 1.72148.416138 1.61474.46038 1.53413.540785 1.45263.622078 1.40775.73032 1.40775.845553V7.28456C1.40775 7.52069 1.60059 7.71325 1.83769 7.71386 2.8372 7.71624 4.5118 7.92457 5.66703 9.1335V2.39489C5.66703 2.31485 5.64659 2.23966 5.608 2.17744 4.65984.650482 2.83777.418481 1.83599.416138zM10.5926 7.2846V.845553C10.5926.73032 10.5477.622078 10.4662.540785 10.3856.46038 10.2788.416138 10.1654.416138H10.1644C9.16265.418522 7.34058.650522 6.39238 2.17748 6.35379 2.2397 6.33339 2.31489 6.33339 2.39493V9.1335C7.48862 7.92457 9.16321 7.71624 10.1627 7.71386 10.3998 7.71325 10.5926 7.52069 10.5926 7.2846z" fill="#B4B1FF"/><path d="M11.5706 1.90112H11.2593V7.28462C11.2593 7.88749 10.7681 8.37908 10.1643 8.38058 9.31646 8.3826 7.91855 8.54838 6.92853 9.48539 8.64078 9.06616 10.4458 9.33868 11.4745 9.57311 11.6029 9.60236 11.7357 9.57214 11.8386 9.49012 11.9411 9.4083 11.9999 9.286 11.9999 9.15472V2.33046C12 2.09373 11.8073 1.90112 11.5706 1.90112zM.740689 7.28462V1.90112H.429335C.192647 1.90112 0 2.09373 0 2.33046V9.1546C0 9.28592.0588285 9.40818.161374 9.49.264203 9.57198.396809 9.60232.525456 9.57299 1.55415 9.33852 3.3592 9.06604 5.07137 9.48527 4.08139 8.5483 2.68348 8.38256 1.83568 8.38054 1.23192 8.37909.740689 7.88749.740689 7.28462z" fill="#4640DE"/></symbol><symbol viewBox="0 0 12 12" fill="none" id="svg-first-aid"><g clip-path="url(#hclip0_1_1000)"><path d="M0.413789 2.48279H11.5862C11.8148 2.48279 12 2.66797 12 2.89658V10.7586C12 10.9873 11.8148 11.1724 11.5862 11.1724H0.413789C0.18518 11.1725 0 10.9873 0 10.7586V2.89658C0 2.66797 0.18518 2.48279 0.413789 2.48279Z" fill="#B4B1FF"/><path d="M7.0346 0H4.96563C4.27997 0 3.72424.555726 3.72424 1.24139V2.48278H4.55182V1.24139C4.55182 1.01278 4.737.827601 4.96561.827601H7.03458C7.26319.827601 7.44837 1.01278 7.44837 1.24139V2.48278H8.27594V1.24139C8.27597.555726 7.72027 0 7.0346 0zM5.99991 3.3103C7.94245 3.3103 9.51715 4.885 9.51715 6.82755 9.51715 8.77009 7.94245 10.3448 5.99991 10.3448 4.05736 10.3448 2.48267 8.77009 2.48267 6.82755 2.48267 4.885 4.05736 3.3103 5.99991 3.3103z" fill="#4640DE"/><path d="M4.96552 4.55176H7.03449V5.79313H8.27585V7.8621H7.03449V9.10349H4.96552V7.8621H3.72415V5.79313H4.96552V4.55176Z" fill="#B4B1FF"/><path d="M2.06884 11.1725H.827454V12.0001H2.06884V11.1725zM11.1721 11.1725H9.93069V12.0001H11.1721V11.1725z" fill="#4640DE"/></g><defs><clipPath id="hclip0_1_1000"><path fill="#fff" d="M0 0H12V12H0z"/></clipPath></defs></symbol><symbol viewBox="0 0 8 16" fill="none" id="svg-garden_plant"><path d="M5.53691 4.23619C5.55278 4.37225 5.53348 4.51011 5.48085 4.63659 5.24281 5.23598 5.04746 5.85146 4.89627 6.47842 4.80818 6.20615 4.71209 5.94189 4.60798 5.67762L4.19157 4.6526C4.13471 4.51884 4.11533 4.37212 4.13551 4.22818 4.26296 3.32729 4.4996 2.44526 4.84021 1.60156 5.18184 2.44714 5.4159 3.33227 5.53691 4.23619zM7.35441 5.65358C7.0791 6.06766 6.91122 6.54377 6.86592 7.03896L6.75381 8.80872C6.75042 8.85133 6.734 8.89186 6.70678 8.92481 6.67956 8.95776 6.64286 8.98153 6.60166 8.9929 6.18668 9.10708 5.76375 9.19006 5.3364 9.24115 5.40135 6.8881 6.12855 4.60105 7.43449 2.64258L7.67473 3.59553C7.76215 3.94251 7.77884 4.30355 7.72381 4.65712 7.66878 5.01069 7.54315 5.34957 7.35441 5.65358zM3.23054 5.021V5.47746L3.15046 5.67766C2.95701 6.15381 2.79909 6.64364 2.67799 7.14312 2.543 6.08828 2.18836 5.07346 1.63695 4.16415 1.63695 3.9159 1.63695 3.66765 1.63695 3.41941 1.63695 3.3153 1.63695 3.20319 1.63695 3.09909 1.72792 2.38972 1.88338 1.69013 2.10141 1.00901 2.19817.666788 2.31312.329974 2.44575 0 3.0844 1.59259 3.35275 3.30949 3.23054 5.021zM1.96498 9.17718C1.58712 9.11109 1.21291 9.02555.843859 8.92093.801254 8.91754.760725 8.90112.727774 8.8739.694823 8.84668.671048 8.80998.659676 8.76878L.355372 7.34336C.164631 6.41613.164631 5.45978.355372 4.53256L.4835 3.88391C1.15702 4.77763 1.60233 5.82217 1.78079 6.92694L1.96498 9.17718zM4.66318 9.31333C4.40692 9.31333 4.15067 9.31333 3.86238 9.31333 3.57409 9.31333 3.34987 9.31333 3.06158 9.31333 3.10972 8.5649 3.2386 7.82386 3.44596 7.10312 3.55807 6.71874 3.6862 6.34237 3.83035 5.974 3.83035 6.04607 3.8864 6.12615 3.91843 6.19822 4.31795 7.1945 4.56888 8.24408 4.66318 9.31333z" fill="#B4B1FF"/><path d="M7.71466 10.0981L6.99394 15.1271C6.97094 15.2956 6.8949 15.4523 6.77684 15.5747C6.65878 15.6971 6.50483 15.7787 6.33729 15.8078C4.69492 16.0641 3.02272 16.0641 1.38035 15.8078C1.21281 15.7787 1.05886 15.6971 0.940802 15.5747C0.822743 15.4523 0.746704 15.2956 0.723697 15.1271L0.00297881 10.0981C-0.00478379 10.0348 0.00267829 9.97057 0.0247439 9.91075C0.0468095 9.85093 0.0828407 9.79725 0.12984 9.75417C0.176839 9.71109 0.233447 9.67985 0.294953 9.66306C0.35646 9.64627 0.421087 9.64441 0.483458 9.65764C1.59423 9.89458 2.72706 10.0127 3.86282 10.01C4.99591 10.0121 6.12602 9.89401 7.23418 9.65764C7.29655 9.64441 7.36118 9.64627 7.42269 9.66306C7.48419 9.67985 7.5408 9.71109 7.5878 9.75417C7.6348 9.79725 7.67083 9.85093 7.6929 9.91075C7.71496 9.97057 7.72242 10.0348 7.71466 10.0981Z" fill="#4640DE"/></symbol><symbol viewBox="0 0 11 14" fill="none" id="svg-gift"><path d="M3.64342 6.79062V13.0844C3.64342 13.1283 3.62597 13.1704 3.59491 13.2015 3.56385 13.2326 3.52172 13.25 3.47779 13.25H.993417C.817711 13.25.649202 13.1802.524959 13.056.400716 12.9317.330917 12.7632.330917 12.5875V6.79062C.330917 6.7467.348367 6.70457.379428 6.67351.410488 6.64245.452616 6.625.496542 6.625H3.47779C3.52172 6.625 3.56385 6.64245 3.59491 6.67351 3.62597 6.70457 3.64342 6.7467 3.64342 6.79062zM10.2684 6.79063V12.5875C10.2684 12.7632 10.1986 12.9317 10.0744 13.056 9.95013 13.1802 9.78162 13.25 9.60592 13.25H7.12154C7.07762 13.25 7.03549 13.2326 7.00443 13.2015 6.97337 13.1704 6.95592 13.1283 6.95592 13.0844V6.79063C6.95592 6.7467 6.97337 6.70457 7.00443 6.67351 7.03549 6.64245 7.07762 6.625 7.12154 6.625H10.1028C10.1467 6.625 10.1888 6.64245 10.2199 6.67351 10.251 6.70457 10.2684 6.7467 10.2684 6.79063zM10.5997 3.31252V5.7969C10.5997 5.84083 10.5822 5.88295 10.5512 5.91401 10.5201 5.94508 10.478 5.96252 10.434 5.96252H7.12154C7.07762 5.96252 7.03549 5.94508 7.00443 5.91401 6.97337 5.88295 6.95592 5.84083 6.95592 5.7969V2.81565C6.95592 2.77172 6.97337 2.7296 7.00443 2.69853 7.03549 2.66747 7.07762 2.65002 7.12154 2.65002H9.93717C10.1129 2.65002 10.2814 2.71982 10.4056 2.84407 10.5299 2.96831 10.5997 3.13682 10.5997 3.31252zM3.64375 2.81565V5.7969C3.64375 5.84083 3.6263 5.88295 3.59524 5.91401 3.56418 5.94508 3.52205 5.96252 3.47812 5.96252H.165625C.121699 5.96252.079571 5.94508.0485103 5.91401.0174496 5.88295 0 5.84083 0 5.7969V3.31252C0 3.13682.069799 2.96831.194042 2.84407.318285 2.71982.486794 2.65002.6625 2.65002H3.47812C3.52205 2.65002 3.56418 2.66747 3.59524 2.69853 3.6263 2.7296 3.64375 2.77172 3.64375 2.81565z" fill="#B4B1FF"/><path d="M6.12795 2.65002H4.4717C4.38023 2.65002 4.30608 2.72418 4.30608 2.81565V13.0844C4.30608 13.1759 4.38023 13.25 4.4717 13.25H6.12795C6.21942 13.25 6.29358 13.1759 6.29358 13.0844V2.81565C6.29358 2.72418 6.21942 2.65002 6.12795 2.65002zM1.72285 0H3.6441C3.99551 0 4.33253.139598 4.58102.388083 4.8295.636569 4.9691.973588 4.9691 1.325V1.82187C4.9691 1.8658 4.95165 1.90793 4.92059 1.93899 4.88953 1.97005 4.8474 1.9875 4.80348 1.9875H3.70373C3.66482 1.98711 3.62729 1.97304 3.59773 1.94775L1.61023.284875C1.58659.2621 1.57025.232815 1.56329.200738 1.55633.168662 1.55906.13524 1.57112.104716 1.58319.0741911 1.60406.0479406 1.63107.0292965 1.65809.0106524 1.69003.000455398 1.72285 0zM8.87767 0H6.95642C6.60501 0 6.26799.139598 6.01951.388083 5.77102.636569 5.63142.973588 5.63142 1.325V1.82187C5.63142 1.8658 5.64887 1.90793 5.67993 1.93899 5.71099 1.97005 5.75312 1.9875 5.79705 1.9875H6.8968C6.9357 1.98711 6.97323 1.97304 7.0028 1.94775L8.9903.284875C9.01393.2621 9.03027.232815 9.03723.200738 9.04419.168662 9.04147.13524 9.0294.104716 9.01733.0741911 8.99647.0479406 8.96945.0292965 8.94244.0106524 8.91049.000455398 8.87767 0z" fill="#4640DE"/></symbol><symbol viewBox="0 0 12 12" fill="none" id="svg-home"><path d="M10.7769 1.26562C10.7769 1.07147 10.6195 0.914062 10.4254 0.914062H9.01913C8.82498 0.914062 8.66757 1.07147 8.66757 1.26562V1.299L10.7769 3.16022V1.26562Z" fill="#4640DE"/><path d="M11.8107 5.00981L6.23256 0.0879346C6.09969 -0.0292998 5.90026 -0.0293232 5.76737 0.0879346L0.189245 5.00981C0.043651 5.13827 0.029776 5.36044 0.158237 5.50603C0.286698 5.65162 0.508862 5.6655 0.654456 5.53704L1.40671 4.87329V11.2968H1.07809C0.883932 11.2968 0.726526 11.4542 0.726526 11.6484C0.726526 11.8425 0.883932 12 1.07809 12H10.9218C11.116 12 11.2734 11.8425 11.2734 11.6484C11.2734 11.4542 11.116 11.2968 10.9218 11.2968H10.5932V4.87326L11.3455 5.53704C11.4124 5.59603 11.4953 5.625 11.578 5.62497C11.6753 5.62497 11.7722 5.58475 11.8417 5.50601C11.9702 5.36044 11.9563 5.13827 11.8107 5.00981ZM7.71095 8.88328C7.19989 9.41233 6.47265 9.94617 5.99996 9.94617C5.50766 9.94617 4.76867 9.34467 4.28546 8.82958C3.87189 8.38875 3.17807 7.52168 3.17807 6.66778C3.17807 5.75676 3.91925 5.0156 4.83027 5.0156C5.27999 5.0156 5.69598 5.193 5.99999 5.49888C6.30402 5.193 6.71996 5.0156 7.16971 5.0156C8.08072 5.0156 8.82191 5.75676 8.82191 6.66778C8.82189 7.59478 8.12586 8.45376 7.71095 8.88328Z" fill="#B4B1FF"/><path d="M7.16956 5.71875C6.80356 5.71875 6.47642 5.92334 6.31585 6.25266C6.25692 6.3735 6.13428 6.45014 5.99984 6.45014C5.8654 6.45014 5.74275 6.37348 5.68383 6.25266C5.52326 5.92334 5.19614 5.71875 4.83012 5.71875C4.30681 5.71875 3.88104 6.14449 3.88104 6.66781C3.88104 7.10391 4.21892 7.7269 4.78484 8.33435C5.33712 8.92713 5.86212 9.23649 6.00085 9.24309C6.14114 9.24087 6.6664 8.95397 7.20964 8.39011C7.78732 7.79051 8.11864 7.16274 8.11864 6.66781C8.11864 6.14449 7.69287 5.71875 7.16956 5.71875Z" fill="#4640DE"/></symbol><symbol viewBox="0 0 9 13" fill="none" id="svg-medicine"><path d="M7.01033 0H1.09054C1.0045 0 .934753.0697469.934753.155784V1.71362C.934753 1.79966 1.0045 1.86941 1.09054 1.86941H7.01033C7.09637 1.86941 7.16611 1.79966 7.16611 1.71362V.155784C7.16611.0697469 7.09637 0 7.01033 0zM3.73875 5.29667C3.66821 5.29551 3.59961 5.31985 3.54558 5.36522 3.50919 5.39453 3.47972 5.43151 3.45925 5.47351 3.43879 5.51552 3.42784 5.56152 3.42719 5.60824V9.97019C3.42878 10.0523 3.46212 10.1307 3.52021 10.1887 3.57829 10.2468 3.65662 10.2802 3.73875 10.2818H7.94492C7.98624 10.2818 8.02586 10.2653 8.05508 10.2361 8.08429 10.2069 8.10071 10.1673 8.10071 10.126V5.45245C8.10071 5.41114 8.08429 5.37151 8.05508 5.3423 8.02586 5.31308 7.98624 5.29667 7.94492 5.29667H3.73875zM5.96335 8.66161C5.79808 8.66161 5.63959 8.59595 5.52273 8.47909 5.40586 8.36223 5.34021 8.20374 5.34021 8.03847 5.37744 7.81313 5.46709 7.59968 5.60193 7.41533 5.71318 7.24267 5.83384 7.07625 5.96335 6.91682 6.09286 7.07625 6.21351 7.24267 6.32477 7.41533 6.46129 7.59872 6.55112 7.81259 6.58648 8.03847 6.58648 8.20374 6.52083 8.36223 6.40397 8.47909 6.28711 8.59595 6.12861 8.66161 5.96335 8.66161z" fill="#B4B1FF"/><path d="M0.0810078 4.67349C0.125747 4.67349 0.162016 4.63722 0.162016 4.59248C0.162016 4.54774 0.125747 4.51147 0.0810078 4.51147C0.0362684 4.51147 0 4.54774 0 4.59248C0 4.63722 0.0362684 4.67349 0.0810078 4.67349Z" fill="#383838"/><path d="M0.934704 5.6082V9.97015C0.934049 10.0169 0.923099 10.0629 0.902634 10.1049C0.88217 10.1469 0.852695 10.1839 0.816308 10.2132C0.762276 10.2585 0.693681 10.2829 0.623136 10.2817H0.0747763C0.0554216 10.2803 0.0372272 10.2719 0.0235036 10.2582C0.00978003 10.2445 0.00143948 10.2263 0 10.2069V5.37141C0.00143948 5.35205 0.00978003 5.33386 0.0235036 5.32013C0.0372272 5.30641 0.0554216 5.29807 0.0747763 5.29663H0.623136C0.70527 5.29823 0.783595 5.33156 0.841683 5.38965C0.899771 5.44774 0.933109 5.52607 0.934704 5.6082Z" fill="#B4B1FF"/><path d="M0.0810078 11.3722C0.125747 11.3722 0.162016 11.336 0.162016 11.2912C0.162016 11.2465 0.125747 11.2102 0.0810078 11.2102C0.0362684 11.2102 0 11.2465 0 11.2912C0 11.336 0.0362684 11.3722 0.0810078 11.3722Z" fill="#383838"/><path d="M2.80411 5.60823V9.97019C2.80392 10.1025 2.8322 10.2333 2.88703 10.3537C2.94187 10.4742 3.02197 10.5814 3.12191 10.6681C3.29185 10.8236 3.51475 10.9083 3.74505 10.9049H7.95122C7.99253 10.9049 8.03216 10.9213 8.06137 10.9505C8.09059 10.9797 8.107 11.0194 8.107 11.0607V11.2165C8.107 11.547 7.9757 11.864 7.74198 12.0977C7.50825 12.3314 7.19126 12.4627 6.86073 12.4627H1.2525C0.921972 12.4627 0.604978 12.3314 0.371256 12.0977C0.137535 11.864 0.00623186 11.547 0.00623186 11.2165V10.9859C0.00617128 10.9655 0.0138453 10.9457 0.0277144 10.9307C0.0415834 10.9157 0.0606213 10.9065 0.0810081 10.9049H0.623136C0.853437 10.9083 1.07633 10.8236 1.24627 10.6681C1.34508 10.5808 1.42401 10.4733 1.47776 10.3529C1.5315 10.2325 1.55881 10.102 1.55784 9.97019V5.60823C1.55804 5.47591 1.52976 5.3451 1.47492 5.22468C1.42009 5.10426 1.33998 4.99704 1.24004 4.91032C1.0701 4.75485 0.847205 4.67015 0.616905 4.67353H0.0747766C0.0543898 4.67196 0.0353519 4.66273 0.0214829 4.64771C0.00761383 4.63268 -6.02221e-05 4.61297 3.5593e-07 4.59252V4.36196C3.5593e-07 4.03143 0.131304 3.71444 0.365025 3.48071C0.598746 3.24699 0.91574 3.11569 1.24627 3.11569V2.56733C1.24771 2.54798 1.25605 2.52978 1.26978 2.51606C1.2835 2.50233 1.30169 2.49399 1.32105 2.49255H6.77349C6.79394 2.49249 6.81365 2.50017 6.82867 2.51404C6.8437 2.52791 6.85292 2.54694 6.8545 2.56733V3.11569C7.18503 3.11569 7.50202 3.24699 7.73574 3.48071C7.96947 3.71444 8.10077 4.03143 8.10077 4.36196V4.59875C8.10081 4.60912 8.09869 4.61938 8.09454 4.62889C8.0904 4.63839 8.08433 4.64693 8.07671 4.65396C8.0691 4.66099 8.0601 4.66636 8.05029 4.66973C8.04049 4.6731 8.03009 4.67439 8.01976 4.67353H3.73882C3.50852 4.67015 3.28562 4.75485 3.11568 4.91032C3.01688 4.99762 2.93794 5.10509 2.8842 5.22548C2.83045 5.34588 2.80314 5.47639 2.80411 5.60823Z" fill="#4640DE"/></symbol><symbol viewBox="0 0 17 13" fill="none" id="svg-painting"><path d="M15.7545 9.22412C15.5262 8.99751 15.3753 8.70459 15.3234 8.38715C15.2714 8.06971 15.3211 7.74398 15.4652 7.45643C15.6582 7.05033 15.7518 6.60417 15.7384 6.15477C15.7388 5.69351 15.6286 5.23887 15.417 4.829C15.3186 4.60668 15.2719 4.36492 15.2804 4.12193C15.2797 3.91574 15.3214 3.7116 15.4029 3.52222C15.4845 3.33284 15.6042 3.16228 15.7545 3.02114C15.9091 2.87777 16.0181 2.69217 16.0682 2.48736C16.1182 2.28256 16.1071 2.06756 16.0361 1.86905C15.965 1.67054 15.8373 1.49725 15.6687 1.37068C15.5001 1.2441 15.298 1.16981 15.0876 1.15703H15.0072C14.648 1.14355 14.2898 1.2037 13.9546 1.3338C13.4428 1.57266 12.878 1.67524 12.3149 1.6316C11.7518 1.58796 11.2095 1.39958 10.7407 1.08472C10.6438 1.03686 10.5499 0.983198 10.4594 0.924018C9.78767 0.345374 8.93539 0.0186683 8.04896 0C7.16253 0.0186683 6.31025 0.345374 5.63847 0.924018C5.5567 0.993377 5.47084 1.05777 5.38136 1.11686C4.91247 1.43172 4.3702 1.6201 3.8071 1.66374C3.244 1.70738 2.67917 1.6048 2.16738 1.36594C1.84451 1.22911 1.49759 1.15809 1.14694 1.15703H1.01034C0.804573 1.17349 0.607974 1.2492 0.444307 1.375C0.28064 1.5008 0.156911 1.67131 0.0880747 1.86592C0.019238 2.06053 0.00823973 2.27092 0.0564094 2.47164C0.104579 2.67237 0.209855 2.85486 0.359513 2.99703C0.598947 3.23511 0.757309 3.54256 0.812116 3.87573C0.866924 4.2089 0.815394 4.55088 0.664841 4.85311C0.465555 5.25818 0.361139 5.70333 0.359513 6.15477C0.3569 6.58336 0.453133 7.00679 0.640736 7.39215C0.744364 7.61644 0.799141 7.8602 0.801435 8.10726C0.801773 8.53162 0.634244 8.93889 0.335408 9.24019C0.181408 9.391 0.0743405 9.58316 0.0271244 9.79348C-0.0200917 10.0038 -0.00543924 10.2233 0.0693138 10.4255C0.144067 10.6276 0.275726 10.8038 0.448407 10.9329C0.621088 11.0619 0.827411 11.1381 1.04248 11.1525H1.12283C1.47132 11.1617 1.81816 11.1016 2.14327 10.9757C2.66406 10.7346 3.23859 10.633 3.8105 10.6809C4.3824 10.7288 4.93203 10.9245 5.40546 11.2489C5.46974 11.3052 5.55009 11.3534 5.61437 11.4177C6.28614 11.9963 7.13842 12.323 8.02485 12.3417C8.91129 12.323 9.76356 11.9963 10.4353 11.4177C10.4996 11.3534 10.58 11.3052 10.6442 11.2489C11.123 10.9158 11.6814 10.7151 12.2627 10.6671C12.844 10.6191 13.4277 10.7256 13.9546 10.9757C14.2775 11.1126 14.6244 11.1836 14.9751 11.1846H15.0474C15.271 11.1757 15.4868 11.1003 15.6673 10.968C15.8477 10.8358 15.9847 10.6528 16.0606 10.4423C16.1365 10.2318 16.1479 10.0035 16.0934 9.7865C16.0389 9.56951 15.9209 9.3737 15.7545 9.22412ZM14.4769 9.36875C14.4769 9.4753 14.4346 9.57748 14.3592 9.65282C14.2839 9.72817 14.1817 9.77049 14.0752 9.77049H2.02275C1.9162 9.77049 1.81401 9.72817 1.73867 9.65282C1.66333 9.57748 1.621 9.4753 1.621 9.36875V2.94079C1.621 2.83424 1.66333 2.73205 1.73867 2.65671C1.81401 2.58137 1.9162 2.53904 2.02275 2.53904H14.0752C14.1817 2.53904 14.2839 2.58137 14.3592 2.65671C14.4346 2.73205 14.4769 2.83424 14.4769 2.94079V9.36875Z" fill="#4640DE"/><path d="M11.2302 5.12728V8.49392C11.2302 8.52376 11.2184 8.55237 11.1973 8.57346C11.1762 8.59456 11.1476 8.60641 11.1178 8.60641H4.11128C4.08787 8.60461 4.06549 8.59601 4.0469 8.58166C4.02831 8.56732 4.01431 8.54786 4.00663 8.52567C3.99895 8.50347 3.99792 8.47952 4.00366 8.45676C4.00941 8.43399 4.02168 8.41339 4.03897 8.3975L7.30919 5.77811C7.3271 5.76468 7.34839 5.7565 7.37068 5.75449C7.39297 5.75248 7.41539 5.75672 7.43541 5.76673C7.45543 5.77674 7.47226 5.79213 7.48403 5.81117C7.4958 5.83021 7.50203 5.85215 7.50203 5.87453V7.56187C7.50203 7.5917 7.51388 7.62031 7.53498 7.64141C7.55607 7.66251 7.58468 7.67436 7.61452 7.67436H8.31356C8.34339 7.67436 8.372 7.66251 8.3931 7.64141C8.4142 7.62031 8.42605 7.5917 8.42605 7.56187V7.17619C8.42508 7.15813 8.42819 7.14009 8.43515 7.1234C8.4421 7.10671 8.45272 7.0918 8.46622 7.07977L11.0294 5.03086C11.0471 5.01491 11.0692 5.0046 11.0928 5.00122C11.1165 4.99783 11.1406 5.00154 11.1621 5.01187C11.1836 5.0222 11.2015 5.03868 11.2137 5.05922C11.2258 5.07977 11.2316 5.10345 11.2302 5.12728Z" fill="#B4B1FF"/><path d="M9.01335 4.9576C9.2796 4.9576 9.49544 4.74176 9.49544 4.4755C9.49544 4.20925 9.2796 3.99341 9.01335 3.99341C8.74709 3.99341 8.53125 4.20925 8.53125 4.4755C8.53125 4.74176 8.74709 4.9576 9.01335 4.9576Z" fill="#507EFE"/></symbol><symbol viewBox="0 0 15 12" fill="none" id="svg-pets"><path d="M2.92189.974964C2.19407 2.53494 1.98386 4.2867 2.32194 5.97458 2.31792 6.0523 2.31792 6.13017 2.32194 6.20789L2.22194 7.29948C2.21767 7.35547 2.19183 7.40762 2.14986 7.44492 2.10788 7.48223 2.05307 7.50178 1.99696 7.49946 1.95394 7.50062 1.91161 7.48842 1.8758 7.46455 1.83999 7.44068 1.81245 7.4063 1.79698 7.36614L.147103 3.57476C-.0151795 3.1994-.0441588 2.77981.0649795 2.3857.174118 1.99159.414804 1.64668.747057 1.40826L2.2886.300016C2.43931.192117 2.61989.133865 2.80523.133362 2.9921.122987 3.17701.17582 3.33019.28335V.333347C3.16216.525143 3.02447.741519 2.92189.974964zM14.8456 3.57471L13.2291 7.32442C13.2136 7.36458 13.186 7.39896 13.1502 7.42283 13.1144 7.4467 13.0721 7.4589 13.0291 7.45774 12.973 7.46006 12.9181 7.44051 12.8762 7.4032 12.8342 7.3659 12.8084 7.31375 12.8041 7.25776L12.7041 6.16617C12.7081 6.08845 12.7081 6.01058 12.7041 5.93286 13.0422 4.24497 12.832 2.49322 12.1041.933243 11.9877.712323 11.8389.510093 11.6625.33329V.283294C11.8065.18274 11.9785.130246 12.1541.133305 12.3395.133808 12.5201.19206 12.6708.299959L14.2456 1.40821C14.5779 1.64662 14.8186 1.99153 14.9277 2.38564 15.0369 2.77975 15.0079 3.19934 14.8456 3.57471z" fill="#4640DE"/><path d="M11.9466 3.5664C11.8574 2.79004 11.6436 2.03315 11.3133 1.3249C11.2177 1.13123 11.0778 0.962805 10.905 0.833274C10.7872 0.729519 10.6517 0.64768 10.505 0.591626L9.99675 0.399974C8.3444 -0.133325 6.56615 -0.133325 4.9138 0.399974L4.47217 0.558295C4.32889 0.62613 4.19904 0.719285 4.08887 0.833274C3.91293 0.969867 3.77281 1.14716 3.68056 1.3499C3.35031 2.05815 3.13647 2.81504 3.04728 3.59139C3.01388 3.9851 3.01388 4.38093 3.04728 4.77464C3.04654 5.14716 3.08565 5.51868 3.16394 5.88288C3.23122 6.21697 3.32313 6.54562 3.43892 6.86614L3.74723 7.69941C3.8639 8.03834 4.02953 8.35837 4.23886 8.64934C4.4658 8.93915 4.64061 9.26622 4.75548 9.61593L4.84714 9.89091C5.01297 10.3876 5.3306 10.8197 5.75521 11.1262C6.17982 11.4327 6.68996 11.5981 7.21363 11.5991H7.78025C8.30392 11.5981 8.81406 11.4327 9.23867 11.1262C9.66327 10.8197 9.98091 10.3876 10.1467 9.89091L10.2384 9.61593C10.3533 9.26622 10.5281 8.93915 10.755 8.64934C10.9643 8.35837 11.13 8.03834 11.2466 7.69941L11.555 6.86614C11.6707 6.54562 11.7627 6.21697 11.8299 5.88288C11.9212 5.51176 11.9715 5.13174 11.9799 4.74964C12.0022 4.35499 11.9911 3.95916 11.9466 3.5664ZM6.03872 5.58291H5.41376C5.29016 5.58291 5.16933 5.54626 5.06656 5.47758C4.96379 5.40891 4.88369 5.31131 4.83638 5.19711C4.78908 5.08292 4.77671 4.95726 4.80082 4.83603C4.82493 4.71481 4.88446 4.60345 4.97186 4.51605C5.05926 4.42865 5.17061 4.36913 5.29184 4.34501C5.41307 4.3209 5.53873 4.33327 5.65292 4.38058C5.76712 4.42788 5.86472 4.50798 5.93339 4.61075C6.00206 4.71352 6.03872 4.83435 6.03872 4.95796V5.58291ZM8.53852 9.64093L8.09689 10.0826C8.01943 10.1607 7.92727 10.2227 7.82573 10.265C7.72418 10.3073 7.61527 10.329 7.50527 10.329C7.39527 10.329 7.28636 10.3073 7.18481 10.265C7.08327 10.2227 6.99111 10.1607 6.91365 10.0826L6.47202 9.64093C6.45209 9.62223 6.43621 9.59964 6.42535 9.57456C6.41449 9.54948 6.40889 9.52244 6.40889 9.49511C6.40889 9.46778 6.41449 9.44074 6.42535 9.41566C6.43621 9.39058 6.45209 9.36799 6.47202 9.34929C6.60693 9.21223 6.76777 9.10338 6.94516 9.02909C7.12255 8.95479 7.31295 8.91653 7.50527 8.91653C7.69759 8.91653 7.88799 8.95479 8.06538 9.02909C8.24277 9.10338 8.40361 9.21223 8.53852 9.34929C8.55898 9.36687 8.57549 9.38859 8.58698 9.413C8.59847 9.43741 8.60467 9.46397 8.60519 9.49094C8.60376 9.51977 8.59636 9.54799 8.58345 9.57381C8.57054 9.59963 8.5524 9.62249 8.53019 9.64093H8.53852ZM9.58011 5.58291H8.95516V4.95796C8.95516 4.83435 8.99181 4.71352 9.06048 4.61075C9.12915 4.50798 9.22676 4.42788 9.34095 4.38058C9.45515 4.33327 9.5808 4.3209 9.70203 4.34501C9.82326 4.36913 9.93462 4.42865 10.022 4.51605C10.1094 4.60345 10.1689 4.71481 10.1931 4.83603C10.2172 4.95726 10.2048 5.08292 10.1575 5.19711C10.1102 5.31131 10.0301 5.40891 9.92732 5.47758C9.82454 5.54626 9.70371 5.58291 9.58011 5.58291Z" fill="#B4B1FF"/></symbol><symbol viewBox="0 0 16 13" fill="none" id="svg-sport"><path d="M2.05807 5.83239C2.08199 6.22605 2.15075 6.61568 2.26301 6.99374C2.44401 7.5421 2.46888 8.13 2.33483 8.69167C2.20077 9.25335 1.91309 9.76666 1.50396 10.1742L0.251527 11.3811C-0.0520931 11.6847 -0.052093 11.9276 0.0997173 12.0718L0.638643 12.6107C0.673925 12.6463 0.715901 12.6745 0.76215 12.6938C0.808399 12.7131 0.858005 12.723 0.908107 12.723C0.958209 12.723 1.00781 12.7131 1.05406 12.6938C1.10031 12.6745 1.14229 12.6463 1.17757 12.6107L2.61218 11.1761C3.00165 10.7858 3.49004 10.509 4.02494 10.3752C4.55985 10.2415 5.12107 10.256 5.64838 10.4171C6.03206 10.5461 6.42943 10.6302 6.8325 10.6676C6.87205 10.672 6.91202 10.664 6.94673 10.6445C6.98145 10.625 7.00916 10.5951 7.02595 10.559C7.04274 10.5229 7.04775 10.4825 7.04028 10.4434C7.0328 10.4043 7.01323 10.3685 6.98431 10.3412L2.38446 5.68818C2.3575 5.66001 2.32251 5.64083 2.28426 5.63326C2.24601 5.62568 2.20636 5.63007 2.17069 5.64583C2.13503 5.66159 2.10508 5.68795 2.08493 5.72133C2.06478 5.75471 2.0554 5.79349 2.05807 5.83239ZM3.36364 9.33921C3.32825 9.30382 3.30018 9.26182 3.28103 9.21558C3.26188 9.16935 3.25202 9.11979 3.25202 9.06975C3.25202 9.0197 3.26188 8.97015 3.28103 8.92392C3.30018 8.87768 3.32825 8.83567 3.36364 8.80028C3.4351 8.72882 3.53203 8.68867 3.6331 8.68867C3.68314 8.68867 3.7327 8.69853 3.77893 8.71768C3.82517 8.73683 3.86718 8.7649 3.90256 8.80028C3.93795 8.83567 3.96602 8.87768 3.98517 8.92392C4.00432 8.97015 4.01418 9.0197 4.01418 9.06975C4.01418 9.11979 4.00432 9.16935 3.98517 9.21558C3.96602 9.26182 3.93795 9.30382 3.90256 9.33921C3.86718 9.3746 3.82517 9.40267 3.77893 9.42182C3.7327 9.44097 3.68314 9.45083 3.6331 9.45083C3.58306 9.45083 3.5335 9.44097 3.48727 9.42182C3.44103 9.40267 3.39902 9.3746 3.36364 9.33921Z" fill="#4640DE"/><path d="M11.3716 6.15125C11.377 6.71399 11.5907 7.2548 11.9713 7.66935C11.9925 7.70073 12.0038 7.73774 12.0038 7.77562C12.0038 7.81349 11.9925 7.8505 11.9713 7.88188C11.7309 8.32854 11.4266 8.73769 11.068 9.09637C10.4364 9.73327 9.65255 10.1983 8.79084 10.4475C8.65902 10.4877 8.51871 10.4914 8.38498 10.4579C8.25126 10.4245 8.12916 10.3553 8.03179 10.2577L2.4224 4.64074C2.32483 4.54337 2.25562 4.42127 2.22219 4.28754C2.18876 4.15382 2.19237 4.01351 2.23264 3.88168C2.54836 2.75329 3.22822 1.76091 4.16642 1.05896C5.10462 0.357018 6.24854 -0.0151166 7.42017 0.000470439C8.59179 0.0160575 9.72541 0.418492 10.6446 1.14515C11.5638 1.8718 12.217 2.88192 12.5026 4.01831C12.5119 4.05692 12.5088 4.09745 12.4938 4.13422C12.4788 4.17098 12.4527 4.20212 12.4191 4.22326C12.0963 4.43039 11.831 4.71572 11.6478 5.05277C11.4647 5.38982 11.3697 5.76767 11.3716 6.15125Z" fill="#B4B1FF"/><path d="M13.6486 7.66938C13.4 7.66976 13.155 7.60904 12.9353 7.49257C12.7156 7.3761 12.5279 7.20744 12.3886 7.00142C12.2197 6.75012 12.1299 6.45406 12.1305 6.15128C12.1305 5.85103 12.2196 5.55752 12.3864 5.30787C12.5532 5.05822 12.7903 4.86364 13.0677 4.74874C13.3451 4.63384 13.6503 4.60377 13.9448 4.66235C14.2393 4.72093 14.5098 4.86551 14.7221 5.07782C14.9344 5.29013 15.079 5.56063 15.1376 5.85512C15.1961 6.1496 15.1661 6.45484 15.0512 6.73224C14.9363 7.00963 14.7417 7.24673 14.492 7.41354C14.2424 7.58035 13.9489 7.66938 13.6486 7.66938Z" fill="#4640DE"/></symbol><symbol viewBox="0 0 13 15" fill="none" id="svg-traveling"><path d="M5.37039 1.4009H4.78237C4.13947 1.40217 3.51658 1.62463 3.01833 2.03092 2.99628 2.04654 2.97091 2.05685 2.94422 2.06102 2.91752 2.0652 2.89022 2.06314 2.86445 2.05501 2.83869 2.04687 2.81515 2.03288 2.7957 2.01412 2.77625 1.99537 2.7614 1.97237 2.75232 1.94692L2.1783.231874C2.16935.20537 2.16688.177105 2.1711.149449 2.17532.121793 2.18612.0955518 2.20257.0729263 2.21902.0503008 2.24066.03195 2.26567.0194124 2.29068.00687473 2.31833.000515644 2.34631.000868407H4.40436C4.54992.00194947 4.69152.0483789 4.80946.133695 4.9274.219012 5.0158.338972 5.06238.476881L5.37039 1.4009zM10.424.231843L9.857 1.94689C9.84792 1.97234 9.83308 1.99534 9.81362 2.01409 9.79417 2.03285 9.77063 2.04684 9.74487 2.05498 9.7191 2.06311 9.6918 2.06517 9.6651 2.06099 9.63841 2.05681 9.61304 2.04651 9.59099 2.03089 9.09088 1.62308 8.46526 1.40053 7.81995 1.40087H7.23193L7.53994.483849C7.58741.337653 7.68167.211143 7.80819.123847 7.9347.036552 8.08643-.00667554 8.23996.00083694H10.291C10.3159.0054415 10.3396.015407 10.3603.030044 10.381.044681 10.3982.0636401 10.4109.0856094 10.4235.107579 10.4313.132034 10.4335.157283 10.4358.182532 10.4325.207972 10.424.231843z" fill="#B4B1FF"/><path d="M12.6013 8.90502V11.9011C12.6013 12.2724 12.4538 12.6285 12.1913 12.8911 11.9287 13.1536 11.5726 13.3011 11.2013 13.3011H10.9983C11.0886 13.0356 11.1267 12.7551 11.1103 12.4751L10.9913 10.5011 10.9493 9.80104 10.8373 7.81299 11.1593 7.91799 11.8593 8.163 12.0973 8.24C12.2416 8.28207 12.3685 8.36944 12.4592 8.4892 12.55 8.60896 12.5998 8.75475 12.6013 8.90502zM1.765 7.81299L1.65299 9.80104 1.61099 10.5011 1.49199 12.4751C1.47559 12.7551 1.51363 13.0356 1.60399 13.3011H1.40099C1.02968 13.3011.673571 13.1536.411013 12.8911.148455 12.6285.000951995 12.2724.000951995 11.9011V8.90502C-.00701564 8.75237.0352013 8.6013.121155 8.4749.207109 8.3485.332074 8.25371.476964 8.205L.70097 8.163 1.40099 7.91799 1.765 7.81299zM9.92035 4.07488C9.89597 3.67018 9.75496 3.28118 9.51434 2.95485 9.3188 2.68956 9.06355 2.47401 8.76926 2.32565 8.47496 2.17728 8.14988 2.10027 7.8203 2.10083H4.78222C4.45265 2.10027 4.12756 2.17728 3.83327 2.32565 3.53897 2.47401 3.28373 2.68956 3.08818 2.95485 2.84756 3.28118 2.70655 3.67018 2.68217 4.07488L2.62617 4.99191C2.62417 5.0213 2.62962 5.05072 2.64202 5.07745 2.65442 5.10417 2.67336 5.12734 2.6971 5.14479 2.72083 5.16224 2.74859 5.17342 2.7778 5.17729 2.807 5.18116 2.83671 5.17759 2.86417 5.16691 3.28779 4.9904 3.74229 4.89998 4.20121 4.9009H8.40132C8.86023 4.89998 9.31474 4.9904 9.73835 5.16691 9.76581 5.17759 9.79552 5.18116 9.82473 5.17729 9.85393 5.17342 9.88169 5.16224 9.90543 5.14479 9.92916 5.12734 9.94811 5.10417 9.96051 5.07745 9.97291 5.05072 9.97836 5.0213 9.97636 4.99191L9.92035 4.07488z" fill="#4640DE"/><path d="M10.0605 6.49702C10.0537 6.3711 10.0131 6.24933 9.94288 6.1446C9.87264 6.03987 9.77542 5.95605 9.66148 5.902C9.2718 5.70177 8.83956 5.59851 8.40145 5.601H4.20134C3.76121 5.60036 3.32713 5.70348 2.93431 5.902C2.82169 5.95701 2.72589 6.04124 2.65694 6.1459C2.58798 6.25057 2.54839 6.37183 2.5423 6.49702L2.18529 12.5172C2.17382 12.708 2.20155 12.8991 2.26675 13.0788C2.33196 13.2585 2.43326 13.4229 2.56443 13.5619C2.69559 13.7009 2.85384 13.8117 3.02942 13.8872C3.205 13.9628 3.39419 14.0016 3.58533 14.0012H9.01747C9.20861 14.0016 9.3978 13.9628 9.57338 13.8872C9.74895 13.8117 9.9072 13.7009 10.0384 13.5619C10.1695 13.4229 10.2708 13.2585 10.336 13.0788C10.4013 12.8991 10.429 12.708 10.4175 12.5172L10.0605 6.49702ZM6.65141 10.1511H5.95139C5.85856 10.1511 5.76953 10.1142 5.7039 10.0486C5.63826 9.98296 5.60138 9.89393 5.60138 9.8011C5.60138 9.70828 5.63826 9.61925 5.7039 9.55361C5.76953 9.48797 5.85856 9.4511 5.95139 9.4511H6.65141C6.74424 9.4511 6.83326 9.48797 6.8989 9.55361C6.96454 9.61925 7.00142 9.70828 7.00142 9.8011C7.00142 9.89393 6.96454 9.98296 6.8989 10.0486C6.83326 10.1142 6.74424 10.1511 6.65141 10.1511Z" fill="#B4B1FF"/></symbol><symbol viewBox="0 0 12 14" fill="none" id="svg-wedding"><path d="M11.8453 9.71888L11.2623 8.15538C11.2146 8.01451 11.19 7.86685 11.1894 7.71813V1.325C11.1894 0.973588 11.0498 0.636569 10.8014 0.388084C10.5529 0.139598 10.2159 0 9.86444 0H2.03369C1.68228 0 1.34526 0.139598 1.09678 0.388084C0.84829 0.636569 0.708692 0.973588 0.708692 1.325V7.71813C0.708156 7.86685 0.683546 8.01451 0.635817 8.15538L0.0793169 9.71888C0.071012 9.74343 0.0685872 9.7696 0.0722375 9.79526C0.0758878 9.82093 0.0855113 9.84538 0.100334 9.86664C0.115156 9.88791 0.134764 9.9054 0.157579 9.91771C0.180394 9.93001 0.205779 9.93679 0.231692 9.9375H11.6929C11.7189 9.93679 11.7442 9.93001 11.7671 9.91771C11.7899 9.9054 11.8095 9.88791 11.8243 9.86664C11.8391 9.84538 11.8487 9.82093 11.8524 9.79526C11.856 9.7696 11.8536 9.74343 11.8453 9.71888ZM10.7456 9.275H1.17907C1.1518 9.27574 1.12476 9.26974 1.10037 9.25752C1.07598 9.2453 1.05499 9.22724 1.03925 9.20495C1.02352 9.18266 1.01354 9.15683 1.01019 9.12976C1.00684 9.10268 1.01024 9.0752 1.02007 9.04975C1.16385 8.72311 1.39943 8.44529 1.69817 8.25005C1.99691 8.05481 2.34594 7.95057 2.70282 7.95H3.97482C3.97373 7.52975 4.10587 7.11997 4.35227 6.77954C4.59867 6.4391 4.94664 6.18553 5.34619 6.05525C5.36927 6.04641 5.39007 6.03252 5.40708 6.0146C5.42409 5.99668 5.43687 5.97518 5.4445 5.95168C5.45212 5.92818 5.45439 5.90326 5.45113 5.87877C5.44788 5.85428 5.43919 5.83082 5.42569 5.81013L5.04807 5.247C5.02328 5.21724 5.0097 5.17973 5.0097 5.141C5.0097 5.10227 5.02328 5.06476 5.04807 5.035L5.39919 4.68388C5.41653 4.66691 5.43739 4.65397 5.46029 4.64596C5.48318 4.63794 5.50756 4.63506 5.53169 4.6375H6.37969C6.40165 4.63694 6.4235 4.64075 6.44398 4.64871C6.46445 4.65667 6.48313 4.66862 6.49894 4.68388L6.85669 5.035C6.88148 5.06476 6.89506 5.10227 6.89506 5.141C6.89506 5.17973 6.88148 5.21724 6.85669 5.247L6.47907 5.81013C6.46557 5.83082 6.45688 5.85428 6.45363 5.87877C6.45037 5.90326 6.45264 5.92818 6.46026 5.95168C6.46788 5.97518 6.48067 5.99668 6.49768 6.0146C6.51469 6.03252 6.53549 6.04641 6.55857 6.05525C6.96182 6.18207 7.31414 6.43416 7.56433 6.7749C7.81453 7.11564 7.94956 7.52727 7.94982 7.95H9.22182C9.5787 7.95057 9.92773 8.05481 10.2265 8.25005C10.5252 8.44529 10.7608 8.72311 10.9046 9.04975C10.9144 9.0752 10.9178 9.10268 10.9144 9.12976C10.9111 9.15683 10.9011 9.18266 10.8854 9.20495C10.8696 9.22724 10.8487 9.2453 10.8243 9.25752C10.7999 9.26974 10.7728 9.27574 10.7456 9.275Z" fill="#B4B1FF"/><path d="M7.28751 7.95H4.63751C4.63751 7.59859 4.77711 7.26157 5.0256 7.01308 5.27408 6.7646 5.6111 6.625 5.96251 6.625 6.31392 6.625 6.65094 6.7646 6.89943 7.01308 7.14791 7.26157 7.28751 7.59859 7.28751 7.95zM11.925 10.7656V11.925C11.925 12.2764 11.7854 12.6134 11.5369 12.8619 11.2884 13.1104 10.9514 13.25 10.6 13.25H1.325C.973588 13.25.636569 13.1104.388083 12.8619.139598 12.6134 0 12.2764 0 11.925V10.7656C0 10.7217.0174498 10.6795.0485105 10.6485.0795712 10.6174.121699 10.6.165625 10.6H4.30625C4.3941 10.6 4.47836 10.6349 4.54048 10.697 4.6026 10.7591 4.6375 10.8434 4.6375 10.9312 4.6375 11.0191 4.6724 11.1033 4.73452 11.1655 4.79664 11.2276 4.8809 11.2625 4.96875 11.2625H6.95625C7.0441 11.2625 7.12836 11.2276 7.19048 11.1655 7.2526 11.1033 7.2875 11.0191 7.2875 10.9312 7.2875 10.8434 7.3224 10.7591 7.38452 10.697 7.44664 10.6349 7.5309 10.6 7.61875 10.6H11.7594C11.8033 10.6 11.8454 10.6174 11.8765 10.6485 11.9076 10.6795 11.925 10.7217 11.925 10.7656z" fill="#4640DE"/></symbol><symbol viewBox="0 0 12 12" fill="none" id="svg-wishes"><path d="M4.62343 7.26415L4.43932 8.35769C4.41422 8.50719 4.47556 8.65785 4.59795 8.74707C4.72054 8.8361 4.88331 8.84802 5.01724 8.77783L6.0004 8.26462L6.98357 8.77793C7.04174 8.80812 7.10548 8.82331 7.16855 8.82331C7.25114 8.82331 7.33353 8.79745 7.40305 8.74716C7.52553 8.65794 7.58706 8.50729 7.56178 8.35778L7.37786 7.26424L8.1695 6.48769C8.27776 6.38164 8.31632 6.22339 8.26988 6.07936C8.22325 5.93544 8.09845 5.83006 7.94866 5.80795L6.85166 5.64528L6.35758 4.65221C6.29057 4.51664 6.15173 4.43079 6.00031 4.43079C5.84917 4.43079 5.71043 4.51664 5.64285 4.65221L5.14924 5.64528L4.05224 5.80785C3.90216 5.82997 3.77794 5.93534 3.73122 6.07927C3.68449 6.22329 3.72295 6.38174 3.8314 6.48759L4.62343 7.26415Z" fill="#4640DE"/><path d="M10.7148 1.27573H9.45868V0.578978C9.45868 0.259204 9.19948 0 8.87961 0H8.78779C8.46802 0 8.20891 0.259204 8.20891 0.578978V1.27573H3.77697V0.578978C3.77697 0.259204 3.51776 0 3.19809 0H3.10617C2.7864 0 2.52729 0.259204 2.52729 0.578978V1.27573H1.28578C0.628833 1.27573 0.0941772 1.8102 0.0941772 2.46734V10.8085C0.0941772 11.4652 0.628833 12.0001 1.28578 12.0001H10.7149C11.3718 12.0001 11.9065 11.4653 11.9065 10.8085V2.46734C11.9064 1.8102 11.3717 1.27573 10.7148 1.27573ZM10.5593 10.653H1.44125V2.76923H10.5593V10.653Z" fill="#B4B1FF"/></symbol></svg>